<?xml version="1.0" encoding="UTF-8" standalone="no"?>
<svg width="1200" height="250" viewBox="0 0 1200 250" version="1.1"
     xmlns="http://www.w3.org/2000/svg">

  <!-- Fondo transparente -->
  <defs>
    <style>
      .maintext {
        font-family: Arial, Helvetica, sans-serif;
        font-size: 72px;
        font-weight: 500;
        fill: #FFFFFF;
        letter-spacing: 1px;
      }

      .subtext {
        font-family: Arial, Helvetica, sans-serif;
        font-size: 34px;
        font-weight: 300;
        fill: #FFFFFF;
        letter-spacing: 18px;
      }
    </style>
  </defs>

  <!-- Isotipo -->
  <g transform="translate(25,5) scale(0.92)">
    <!-- Tenedor -->
    <path d="M110 0
             C110 40, 110 70, 120 95
             C130 120, 145 135, 145 165
             L145 230
             C145 235, 150 235, 150 230
             L150 165
             C150 135, 165 120, 175 95
             C185 70, 185 40, 185 0
             L170 0
             C170 35, 168 62, 160 82
             L160 0
             L145 0
             L145 82
             C137 62, 135 35, 135 0
             Z"
          fill="#FFFFFF"/>

    <!-- Hoja izquierda -->
    <path d="M30 115
             C55 180, 105 205, 170 185
             C125 185, 85 170, 55 135
             C95 128, 132 126, 160 145
             C132 115, 88 105, 30 115
             Z"
          fill="#FFFFFF"/>

    <!-- Hoja derecha -->
    <path d="M285 105
             C250 135, 220 125, 185 165
             C160 195, 150 240, 150 295
             C165 240, 175 205, 200 180
             C225 155, 260 148, 285 135
             C280 185, 250 230, 200 235
             C215 195, 235 175, 255 165
             C215 165, 180 195, 190 245
             C260 245, 315 195, 325 105
             Z"
          fill="#FFFFFF"/>
  </g>

  <!-- Texto -->
  <g transform="translate(360,110)">
    <text class="maintext" x="0" y="0">LORENZA ROJAS</text>
    <text class="subtext" x="2" y="55">NUTRICIONISTA</text>
  </g>

</svg>
